<svg width="101" height="43" viewBox="0 0 101 43" fill="none" xmlns="http://www.w3.org/2000/svg">
<path d="M49.6733 15.4707H52.9436V22.4974H53.0983C53.3782 21.8198 53.7833 21.26 54.3136 20.8181C54.8439 20.3762 55.5657 20.1552 56.4791 20.1552C57.1125 20.1552 57.687 20.273 58.2026 20.5087C58.7329 20.7444 59.1822 21.1053 59.5505 21.5915C59.9335 22.0776 60.2281 22.6963 60.4343 23.4476C60.6553 24.1989 60.7658 25.0901 60.7658 26.1213C60.7658 27.1524 60.6553 28.0436 60.4343 28.7949C60.2281 29.5462 59.9335 30.1649 59.5505 30.651C59.1822 31.1372 58.7329 31.4981 58.2026 31.7338C57.687 31.9695 57.1125 32.0873 56.4791 32.0873C55.5657 32.0873 54.8439 31.8737 54.3136 31.4465C53.7833 31.0046 53.3782 30.4374 53.0983 29.7451H52.9436V31.8222H49.6733V15.4707ZM55.0649 29.5462C55.8014 29.5462 56.3686 29.3252 56.7663 28.8833C57.1641 28.4267 57.3629 27.8006 57.3629 27.0051V25.2374C57.3629 24.4419 57.1641 23.8232 56.7663 23.3813C56.3686 22.9246 55.8014 22.6963 55.0649 22.6963C54.4904 22.6963 53.9895 22.8362 53.5623 23.1161C53.1499 23.396 52.9436 23.8379 52.9436 24.4419V27.8006C52.9436 28.4046 53.1499 28.8465 53.5623 29.1264C53.9895 29.4063 54.4904 29.5462 55.0649 29.5462Z" fill="black"/>
<path d="M63.1215 29.2811H66.6127V18.0118H63.1215V15.4707H69.883V29.2811H73.3743V31.8222H63.1215V29.2811Z" fill="black"/>
<path d="M81.4972 32.0873C80.6133 32.0873 79.8178 31.9547 79.1107 31.6896C78.4036 31.4097 77.7997 31.0119 77.2988 30.4964C76.8127 29.9808 76.4371 29.3547 76.1719 28.6182C75.9067 27.8816 75.7742 27.0493 75.7742 26.1213C75.7742 25.1932 75.9067 24.3609 76.1719 23.6243C76.4371 22.8878 76.8127 22.2617 77.2988 21.7461C77.7997 21.2306 78.4036 20.8402 79.1107 20.575C79.8178 20.2951 80.6133 20.1552 81.4972 20.1552C82.381 20.1552 83.1765 20.2951 83.8836 20.575C84.5907 20.8402 85.1873 21.2306 85.6734 21.7461C86.1743 22.2617 86.5573 22.8878 86.8224 23.6243C87.0876 24.3609 87.2202 25.1932 87.2202 26.1213C87.2202 27.0493 87.0876 27.8816 86.8224 28.6182C86.5573 29.3547 86.1743 29.9808 85.6734 30.4964C85.1873 31.0119 84.5907 31.4097 83.8836 31.6896C83.1765 31.9547 82.381 32.0873 81.4972 32.0873ZM81.4972 29.6567C82.2337 29.6567 82.8082 29.4284 83.2207 28.9717C83.6332 28.515 83.8394 27.8669 83.8394 27.0272V25.2153C83.8394 24.3756 83.6332 23.7275 83.2207 23.2708C82.8082 22.8141 82.2337 22.5858 81.4972 22.5858C80.7606 22.5858 80.1861 22.8141 79.7736 23.2708C79.3612 23.7275 79.1549 24.3756 79.1549 25.2153V27.0272C79.1549 27.8669 79.3612 28.515 79.7736 28.9717C80.1861 29.4284 80.7606 29.6567 81.4972 29.6567Z" fill="black"/>
<path d="M101 32.9712C101 34.1791 100.492 35.0703 99.4751 35.6448C98.4587 36.2194 96.8603 36.5066 94.6801 36.5066C93.59 36.5066 92.6915 36.4403 91.9844 36.3077C91.2773 36.1899 90.7101 36.0131 90.2829 35.7774C89.8705 35.5417 89.5758 35.2618 89.3991 34.9378C89.237 34.6137 89.156 34.2601 89.156 33.8771C89.156 33.229 89.3475 32.7355 89.7305 32.3967C90.1135 32.0726 90.6512 31.8222 91.3436 31.6454V31.5128C90.8574 31.3655 90.4671 31.1593 90.1725 30.8941C89.8926 30.6142 89.7526 30.2238 89.7526 29.723C89.7526 29.1632 89.9368 28.7507 90.305 28.4856C90.688 28.2204 91.1889 28.0142 91.8076 27.8669V27.7343C91.13 27.4102 90.5997 26.9536 90.2166 26.3643C89.8484 25.7751 89.6642 25.0606 89.6642 24.221C89.6642 23.5581 89.7821 22.9762 90.0178 22.4753C90.2535 21.9597 90.5849 21.5325 91.0121 21.1937C91.4541 20.8549 91.977 20.5971 92.581 20.4204C93.1849 20.2436 93.8626 20.1552 94.6139 20.1552C95.3357 20.1552 96.0059 20.2362 96.6246 20.3983V19.7796C96.6246 19.3376 96.7793 18.9693 97.0887 18.6747C97.398 18.3801 97.8252 18.2328 98.3703 18.2328H100.381V20.6192H97.6411V20.8181C98.2598 21.1422 98.7385 21.5915 99.0774 22.166C99.4309 22.7258 99.6077 23.4107 99.6077 24.221C99.6077 24.8838 99.4898 25.4657 99.2541 25.9666C99.0184 26.4674 98.6796 26.8946 98.2377 27.2482C97.7957 27.587 97.2654 27.8448 96.6467 28.0216C96.0428 28.1983 95.3651 28.2867 94.6139 28.2867C94.275 28.2867 93.951 28.272 93.6416 28.2425C93.3323 28.1983 93.0376 28.1394 92.7577 28.0657C92.5957 28.1541 92.4558 28.2646 92.3379 28.3972C92.2348 28.5298 92.1832 28.6992 92.1832 28.9054C92.1832 29.0822 92.2274 29.2221 92.3158 29.3252C92.4042 29.4284 92.522 29.5094 92.6694 29.5683C92.8314 29.6125 93.0155 29.642 93.2218 29.6567C93.428 29.6714 93.6416 29.6788 93.8626 29.6788H96.47C97.2802 29.6788 97.9725 29.7598 98.547 29.9219C99.1215 30.0839 99.5929 30.3122 99.9612 30.6068C100.329 30.9015 100.595 31.2476 100.757 31.6454C100.919 32.0431 101 32.485 101 32.9712ZM97.9062 33.2142C97.9062 32.9196 97.7884 32.6839 97.5527 32.5071C97.317 32.3451 96.8677 32.2641 96.2048 32.2641H92.2937C91.9991 32.5145 91.8518 32.8239 91.8518 33.1921C91.8518 33.5457 91.9991 33.8329 92.2937 34.0539C92.6031 34.2896 93.1187 34.4074 93.8405 34.4074H95.7629C96.5142 34.4074 97.0592 34.3043 97.398 34.0981C97.7368 33.8919 97.9062 33.5972 97.9062 33.2142ZM94.6139 26.2096C95.2768 26.2096 95.7555 26.0476 96.0501 25.7235C96.3595 25.3994 96.5142 24.987 96.5142 24.4861V23.9558C96.5142 23.4549 96.3595 23.0425 96.0501 22.7184C95.7555 22.3943 95.2768 22.2323 94.6139 22.2323C93.9657 22.2323 93.4943 22.3943 93.1997 22.7184C92.9051 23.0425 92.7577 23.4549 92.7577 23.9558V24.4861C92.7577 24.987 92.9051 25.3994 93.1997 25.7235C93.4943 26.0476 93.9657 26.2096 94.6139 26.2096Z" fill="black"/>
<rect width="42.6417" height="42.6417" fill="#FF4F14"/>
<path fill-rule="evenodd" clip-rule="evenodd" d="M16.2294 9.22842H11.4561V33.4133H16.2294V23.5484H26.4121V33.4133H31.1854V23.5484H31.186V18.7751H31.1854V14.0017H26.4125V9.22842H21.6392V14.0018H26.4121V18.7751L16.2294 18.7751V9.22842Z" fill="white"/>
</svg>
